# xmcd
#
# Track frame offsets:
#	150
#	30980
#	55330
#	80312
#	108935
#	130695
#	157817
#	181922
#	203320
#	227065
#	251875
#	265407
#	283749
#	298814
#
# Disc length: 4372 seconds
#
# Revision: 0
# Processed by: cddbd v1.5.1PL0 Copyright (c) Steve Scherf et al.
# Submitted via: dBpowerAMP V4.0
#
DISCID=ba11120e
DTITLE=George Michael - Older
DYEAR=1900
DGENRE=Blues
TTITLE0=Jesus To A Child
TTITLE1=Fastlove
TTITLE2=Older
TTITLE3=Spinning The Wheel
TTITLE4=Doesn't Really Matter
TTITLE5=The Strangest Thing
TTITLE6=To Be Forgiven
TTITLE7=Move On
TTITLE8=Star People
TTITLE9=You Have Benn Loved
TTITLE10=Free
TTITLE11=Happy
TTITLE12=Desafinado (feat. Astrud Gilberto)
TTITLE13=Careless Whisper
EXTD=George Michael - Older
EXTT0=
EXTT1=
EXTT2=
EXTT3=
EXTT4=
EXTT5=
EXTT6=
EXTT7=
EXTT8=
EXTT9=
EXTT10=
EXTT11=
EXTT12=
EXTT13=
PLAYORDER=
